inDegrees=no
DataType=double
version=3
OpenSimVersion=4.4-2022-10-11-798caa840
endheader
time	elv_angle	shoulder_elv	shoulder_rot	elbow_flexion	pro_sup	deviation	flexion
3.6031277150	1.0504484177	0.5398964286	1.5558843613	1.6420228481	0.0000000000	0.0000000000	0.0000000000
3.6072980017	1.0504577160	0.5398974419	1.5558819771	1.6420146227	0.0000000000	0.0000000000	0.0000000000
3.6114682884	1.0504670143	0.5398984551	1.5558797121	1.6420063972	0.0000000000	0.0000000000	0.0000000000
3.6156385752	1.0504760742	0.5398995280	1.5558775663	1.6419984102	0.0000000000	0.0000000000	0.0000000000
3.6198088619	1.0504852533	0.5399006009	1.5558755398	1.6419905424	0.0000000000	0.0000000000	0.0000000000
3.6239791486	1.0504941940	0.5399017930	1.5558735132	1.6419827938	0.0000000000	0.0000000000	0.0000000000
3.6281494353	1.0505031347	0.5399029851	1.5558718443	1.6419750452	0.0000000000	0.0000000000	0.0000000000
3.6323197220	1.0505119562	0.5399042368	1.5558700562	1.6419674158	0.0000000000	0.0000000000	0.0000000000
3.6364900087	1.0505206585	0.5399054885	1.5558685064	1.6419597864	0.0000000000	0.0000000000	0.0000000000
3.6406602954	1.0505292416	0.5399068594	1.5558670759	1.6419525146	0.0000000000	0.0000000000	0.0000000000
3.6448305821	1.0505377054	0.5399081707	1.5558655262	1.6419452429	0.0000000000	0.0000000000	0.0000000000
3.6490008688	1.0505461693	0.5399095416	1.5558643341	1.6419378519	0.0000000000	0.0000000000	0.0000000000
3.6531711555	1.0505546331	0.5399109125	1.5558630228	1.6419308186	0.0000000000	0.0000000000	0.0000000000
3.6573414422	1.0505627394	0.5399123430	1.5558619499	1.6419237852	0.0000000000	0.0000000000	0.0000000000
3.6615117289	1.0505709648	0.5399137139	1.5558607578	1.6419167519	0.0000000000	0.0000000000	0.0000000000
3.6656820156	1.0505790710	0.5399152040	1.5558598042	1.6419099569	0.0000000000	0.0000000000	0.0000000000
3.6698523023	1.0505870581	0.5399166346	1.5558589697	1.6419031620	0.0000000000	0.0000000000	0.0000000000
3.6740225891	1.0505949259	0.5399180651	1.5558580160	1.6418963671	0.0000000000	0.0000000000	0.0000000000
3.6781928758	1.0506026745	0.5399196148	1.5558571815	1.6418898106	0.0000000000	0.0000000000	0.0000000000
3.6823631625	1.0506103039	0.5399210453	1.5558563471	1.6418832541	0.0000000000	0.0000000000	0.0000000000
3.6865334492	1.0506179333	0.5399225354	1.5558557510	1.6418766975	0.0000000000	0.0000000000	0.0000000000
3.6907037359	1.0506254435	0.5399240255	1.5558550358	1.6418704987	0.0000000000	0.0000000000	0.0000000000
3.6948740226	1.0506328344	0.5399255753	1.5558545589	1.6418640614	0.0000000000	0.0000000000	0.0000000000
3.6990443093	1.0506401062	0.5399270654	1.5558539629	1.6418579817	0.0000000000	0.0000000000	0.0000000000
3.7032145960	1.0506473780	0.5399285555	1.5558534861	1.6418519020	0.0000000000	0.0000000000	0.0000000000
3.7073848827	1.0506544113	0.5399300456	1.5558530092	1.6418458223	0.0000000000	0.0000000000	0.0000000000
3.7115551694	1.0506614447	0.5399315357	1.5558526516	1.6418398619	0.0000000000	0.0000000000	0.0000000000
3.7157254561	1.0506684780	0.5399330258	1.5558522940	1.6418340206	0.0000000000	0.0000000000	0.0000000000
3.7198957428	1.0506752729	0.5399345160	1.5558519363	1.6418281794	0.0000000000	0.0000000000	0.0000000000
3.7240660295	1.0506820679	0.5399360061	1.5558515787	1.6418224573	0.0000000000	0.0000000000	0.0000000000
3.7282363162	1.0506886244	0.5399374366	1.5558514595	1.6418168545	0.0000000000	0.0000000000	0.0000000000
3.7324066030	1.0506953001	0.5399389267	1.5558512211	1.6418112516	0.0000000000	0.0000000000	0.0000000000
3.7365768897	1.0507017374	0.5399404168	1.5558508635	1.6418056488	0.0000000000	0.0000000000	0.0000000000
3.7407471764	1.0507081747	0.5399418473	1.5558507442	1.6418002844	0.0000000000	0.0000000000	0.0000000000
3.7449174631	1.0507144928	0.5399432778	1.5558506250	1.6417948008	0.0000000000	0.0000000000	0.0000000000
3.7490877498	1.0507206917	0.5399447083	1.5558505058	1.6417895555	0.0000000000	0.0000000000	0.0000000000
3.7532580365	1.0507267714	0.5399461389	1.5558505058	1.6417843103	0.0000000000	0.0000000000	0.0000000000
3.7574283232	1.0507328510	0.5399475694	1.5558503866	1.6417791843	0.0000000000	0.0000000000	0.0000000000
3.7615986099	1.0507388115	0.5399489403	1.5558503866	1.6417740583	0.0000000000	0.0000000000	0.0000000000
3.7657688966	1.0507446527	0.5399503112	1.5558503866	1.6417691708	0.0000000000	0.0000000000	0.0000000000
3.7699391833	1.0507504940	0.5399517417	1.5558503866	1.6417640448	0.0000000000	0.0000000000	0.0000000000
3.7741094700	1.0507562160	0.5399530530	1.5558503866	1.6417592764	0.0000000000	0.0000000000	0.0000000000
3.7782797567	1.0507618189	0.5399544239	1.5558505058	1.6417543888	0.0000000000	0.0000000000	0.0000000000
3.7824500434	1.0507674217	0.5399557352	1.5558505058	1.6417497396	0.0000000000	0.0000000000	0.0000000000
3.7866203301	1.0507729053	0.5399570465	1.5558506250	1.6417449713	0.0000000000	0.0000000000	0.0000000000
3.7907906169	1.0507782698	0.5399583578	1.5558507442	1.6417402029	0.0000000000	0.0000000000	0.0000000000
3.7949609036	1.0507836342	0.5399596691	1.5558507442	1.6417357922	0.0000000000	0.0000000000	0.0000000000
3.7991311903	1.0507888794	0.5399609208	1.5558508635	1.6417312622	0.0000000000	0.0000000000	0.0000000000
3.8033014770	1.0507940054	0.5399621725	1.5558511019	1.6417268515	0.0000000000	0.0000000000	0.0000000000
3.8074717637	1.0507991314	0.5399634242	1.5558513403	1.6417224407	0.0000000000	0.0000000000	0.0000000000
3.8116420504	1.0508041382	0.5399646759	1.5558514595	1.6417180300	0.0000000000	0.0000000000	0.0000000000
3.8158123371	1.0508091450	0.5399658680	1.5558515787	1.6417137384	0.0000000000	0.0000000000	0.0000000000
3.8199826238	1.0508140326	0.5399671197	1.5558518171	1.6417094469	0.0000000000	0.0000000000	0.0000000000
3.8241529105	1.0508188009	0.5399683118	1.5558519363	1.6417053938	0.0000000000	0.0000000000	0.0000000000
3.8283231972	1.0508234501	0.5399694443	1.5558522940	1.6417012215	0.0000000000	0.0000000000	0.0000000000
3.8324934839	1.0508282185	0.5399706364	1.5558524132	1.6416971684	0.0000000000	0.0000000000	0.0000000000
3.8366637706	1.0508327484	0.5399717689	1.5558526516	1.6416931152	0.0000000000	0.0000000000	0.0000000000
3.8408340573	1.0508372784	0.5399729013	1.5558527708	1.6416893005	0.0000000000	0.0000000000	0.0000000000
3.8450043440	1.0508416891	0.5399739742	1.5558530092	1.6416852474	0.0000000000	0.0000000000	0.0000000000
3.8491746308	1.0508460999	0.5399751067	1.5558533669	1.6416814327	0.0000000000	0.0000000000	0.0000000000
3.8533449175	1.0508503914	0.5399761200	1.5558536053	1.6416777372	0.0000000000	0.0000000000	0.0000000000
3.8575152042	1.0508546829	0.5399771929	1.5558538437	1.6416739225	0.0000000000	0.0000000000	0.0000000000
3.8616854909	1.0508588552	0.5399782658	1.5558540821	1.6416702271	0.0000000000	0.0000000000	0.0000000000
3.8658557776	1.0508630276	0.5399793386	1.5558544397	1.6416666508	0.0000000000	0.0000000000	0.0000000000
3.8700260643	1.0508670807	0.5399802923	1.5558546782	1.6416630745	0.0000000000	0.0000000000	0.0000000000
3.8741963510	1.0508711338	0.5399813056	1.5558549166	1.6416593790	0.0000000000	0.0000000000	0.0000000000
3.8783666377	1.0508750677	0.5399823189	1.5558551550	1.6416559219	0.0000000000	0.0000000000	0.0000000000
